<svg xmlns='http://www.w3.org/2000/svg'
	width='100' height='100'
	y='0px' x='0px'
	viewBox="-399 226 100 100">
	<path
		 fill="none"
		 d="m -349,251 h 60 v 60 h -60 z" />
	<circle
		 r="50"
		 cy="276"
		 cx="-349"
		 style="fill:#ffffff;stroke-width:1" />
	<path
		 fill="#e0e0e0"
		 d="m -394.30152,257.301 24.805,49.699 h 5.7988 l -24.805,-49.699 z"
		 style="fill:#cccccc" />
	<path
		 fill="#e0e0e0"
		 d="m -309.35917,257.301 -24.805,49.699 h 5.7988 l 24.805,-49.699 z"
		 style="fill:#cccccc;fill-opacity:1" />
	<path
		 fill="#69b7cf"
		 d="m -349.20318,307.03854 c 0,0 -2.75754,-6.89862 -7.82047,-15.73431 -5.06294,-8.83569 -12.43127,-19.60843 -11.43295,-27.35667 1.99665,-15.49649 18.41954,-15.5861 19.25342,-15.5861 0.83388,0 17.40076,-0.16015 19.25342,15.5861 0.92633,7.87312 -6.442,18.64587 -11.48694,27.45033 -5.04494,8.80446 -7.76648,15.64065 -7.76648,15.64065 z"
		 style="stroke-width:0.916829" />
	<circle
		 fill="#f8f8f8"
		 r="9.5"
		 cy="265.41528"
		 cx="-349"
		 style="stroke-width:0.863636" />
</svg>
