<svg xmlns="http://www.w3.org/2000/svg"
	 width="30" height="16" viewBox="0 4 22.5 12">
	<path d="m-0.0031773-1.5h24v24h-24z" fill="none"/>
	<path d="m3.1433 10c0-1.5238 1.3912-2.7625 3.1026-2.7625h4.0033v-1.6931h-4.0033c-2.7623 0-5.0041 1.9961-5.0041 4.4556 0 2.4595 2.2419 4.4556 5.0041 4.4556h4.0033v-1.6931h-4.0033c-1.7114 0-3.1026-1.2387-3.1026-2.7625zm4.1034 0.89112h8.0066v-1.7822h-8.0066zm9.0075-5.3467h-4.0033v1.6931h4.0033c1.7114 0 3.1026 1.2387 3.1026 2.7625 0 1.5238-1.3912 2.7625-3.1026 2.7625h-4.0033v1.6931h4.0033c2.7623 0 5.0041-1.9961 5.0041-4.4556 0-2.4595-2.2419-4.4556-5.0041-4.4556z" fill="#69b7cf" stroke-width=".9"/>
</svg>
