<svg xmlns='http://www.w3.org/2000/svg'
	 height='26' width='62' viewBox="0 4 46.499999 19.499999">
  <path
     style="fill:none"
     d="M -0.00317729,5.9999995 H 23.996823 V 30 H -0.00317729 Z" />
  <path
     style="fill:#69b7cf;stroke-width:0.94438535"
     d="m 15.143285,13.75 c 0,-1.523824 1.391153,-2.762488 3.102571,-2.762488 h 4.003316 V 9.2943751 h -4.003316 c -2.762289,0 -5.004146,1.9961199 -5.004146,4.4556249 0,2.459504 2.241857,4.455624 5.004146,4.455624 h 4.003316 v -1.693137 h -4.003316 c -1.711418,0 -3.102571,-1.238664 -3.102571,-2.762487 z m 4.1034,0.891125 h 8.006632 v -1.78225 H 19.246685 Z M 28.254146,9.2943751 H 24.25083 v 1.6931369 h 4.003316 c 1.711418,0 3.102571,1.238664 3.102571,2.762488 0,1.523823 -1.391153,2.762487 -3.102571,2.762487 H 24.25083 v 1.693137 h 4.003316 c 2.762289,0 5.004146,-1.99612 5.004146,-4.455624 0,-2.459505 -2.241857,-4.4556249 -5.004146,-4.4556249 z" />
  <rect
     style="fill:none;stroke:#69b7cf;stroke-width:0.65794349;stroke-opacity:1"
     y="4.3289723"
     x="0.32897174"
     height="18.842056"
     width="45.84206" />
</svg>
